<svg xmlns="http://www.w3.org/2000/svg" width="24" height="23.586" viewBox="0 0 24 23.586"><defs><style>.a{fill:#1a1a1a;}</style></defs><g transform="translate(0 -0.5)"><path class="a" d="M17.751,2.155A2.073,2.073,0,0,0,15.724.5a.414.414,0,1,0,0,.828,1.241,1.241,0,1,1,0,2.483.414.414,0,1,0,0,.828,2.073,2.073,0,0,0,2.027-1.655h5.421V6.707H.828V2.983H7.862a.414.414,0,1,0,0-.828H7.111A1.239,1.239,0,1,1,8.276,3.81a.414.414,0,1,0,0,.828A2.069,2.069,0,1,0,6.249,2.155H0V24.086H24V2.155Zm5.421,21.1H.828V7.534H23.172Z"/><path class="a" d="M25.415,1.33a1.245,1.245,0,1,1,0,2.491.415.415,0,1,0,0,.83,2.076,2.076,0,1,0,0-4.151.415.415,0,1,0,0,.83Z" transform="translate(-14.659)"/><path class="a" d="M31.415,1.33a1.245,1.245,0,1,1,0,2.491.415.415,0,1,0,0,.83,2.076,2.076,0,0,0,0-4.151.415.415,0,1,0,0,.83Z" transform="translate(-18.177)"/><circle class="a" cx="0.588" cy="0.588" r="0.588" transform="translate(2.636 13.17)"/><circle class="a" cx="0.588" cy="0.588" r="0.588" transform="translate(5.556 13.17)"/><circle class="a" cx="0.588" cy="0.588" r="0.588" transform="translate(5.556 10.241)"/><circle class="a" cx="0.588" cy="0.588" r="0.588" transform="translate(8.484 13.17)"/><circle class="a" cx="0.588" cy="0.588" r="0.588" transform="translate(8.484 10.241)"/><circle class="a" cx="0.588" cy="0.588" r="0.588" transform="translate(11.412 13.17)"/><circle class="a" cx="0.588" cy="0.588" r="0.588" transform="translate(11.412 10.241)"/><circle class="a" cx="0.588" cy="0.588" r="0.588" transform="translate(14.341 13.17)"/><circle class="a" cx="0.588" cy="0.588" r="0.588" transform="translate(14.341 10.241)"/><circle class="a" cx="0.588" cy="0.588" r="0.588" transform="translate(17.269 13.17)"/><circle class="a" cx="0.588" cy="0.588" r="0.588" transform="translate(17.269 10.241)"/><circle class="a" cx="0.588" cy="0.588" r="0.588" transform="translate(20.189 13.17)"/><circle class="a" cx="0.588" cy="0.588" r="0.588" transform="translate(20.189 10.241)"/><circle class="a" cx="0.588" cy="0.588" r="0.588" transform="translate(2.636 16.098)"/><circle class="a" cx="0.588" cy="0.588" r="0.588" transform="translate(2.636 19.026)"/><circle class="a" cx="0.588" cy="0.588" r="0.588" transform="translate(5.556 16.098)"/><circle class="a" cx="0.588" cy="0.588" r="0.588" transform="translate(5.556 19.026)"/><circle class="a" cx="0.588" cy="0.588" r="0.588" transform="translate(8.484 16.098)"/><circle class="a" cx="0.588" cy="0.588" r="0.588" transform="translate(8.484 19.026)"/><circle class="a" cx="0.588" cy="0.588" r="0.588" transform="translate(11.412 16.098)"/><circle class="a" cx="0.588" cy="0.588" r="0.588" transform="translate(11.412 19.026)"/><circle class="a" cx="0.588" cy="0.588" r="0.588" transform="translate(14.341 16.098)"/><circle class="a" cx="0.588" cy="0.588" r="0.588" transform="translate(14.341 19.026)"/><circle class="a" cx="0.588" cy="0.588" r="0.588" transform="translate(17.269 16.098)"/><circle class="a" cx="0.588" cy="0.588" r="0.588" transform="translate(17.269 19.026)"/><circle class="a" cx="0.588" cy="0.588" r="0.588" transform="translate(20.189 16.098)"/></g></svg>