<svg xmlns="http://www.w3.org/2000/svg" width="24" height="23.998" viewBox="0 0 24 23.998"><g transform="translate(0 -0.018)"><g transform="translate(0 0.018)"><path d="M23.371,18.532l-.932-.621A11.941,11.941,0,0,0,12.048.068a.4.4,0,1,0,0,.8,11.142,11.142,0,0,1,9.723,16.6l-3.259-2.173a1.418,1.418,0,0,0-1.9.308L15.2,17.42a.605.605,0,0,1-.775.163l-.269-.148a16.267,16.267,0,0,1-4.239-3.33,16.333,16.333,0,0,1-3.33-4.239L6.438,9.6a.606.606,0,0,1,.16-.778L8.416,7.4a1.419,1.419,0,0,0,.309-1.9L5.485.648A1.411,1.411,0,0,0,3.584.22L1.553,1.44a2.865,2.865,0,0,0-1.307,1.7C-.485,5.8.065,10.4,6.841,17.177A27.754,27.754,0,0,0,14.475,22.9,11.123,11.123,0,0,1,.9,12.018a.4.4,0,1,0-.8,0,11.961,11.961,0,0,0,11.946,11.95,11.808,11.808,0,0,0,3.639-.574A9.846,9.846,0,0,0,19,24.016a7.086,7.086,0,0,0,1.88-.246,2.863,2.863,0,0,0,1.7-1.307l1.221-2.03A1.411,1.411,0,0,0,23.371,18.532Zm-.26,1.491-1.219,2.031A2.067,2.067,0,0,1,20.671,23a7.789,7.789,0,0,1-4.764-.37.4.4,0,0,0-.1-.04c-2.24-.831-5.02-2.6-8.4-5.981C.9,10.107.342,5.808,1.017,3.347a2.07,2.07,0,0,1,.947-1.221L4,.907a.612.612,0,0,1,.825.186L6.58,3.735,8.057,5.95a.616.616,0,0,1-.134.824L6.105,8.188a1.4,1.4,0,0,0-.371,1.8l.144.262a16.966,16.966,0,0,0,3.467,4.423,16.984,16.984,0,0,0,4.423,3.466l.263.145a1.4,1.4,0,0,0,1.8-.371l1.415-1.819a.616.616,0,0,1,.824-.134l4.857,3.24A.611.611,0,0,1,23.111,20.022Z" transform="translate(0 -0.018)"/></g></g></svg>