<svg xmlns="http://www.w3.org/2000/svg" width="24" height="24" viewBox="0 0 24 24"><g transform="translate(-0.001 -0.004)"><g transform="translate(0.001 0.004)"><g transform="translate(0 0)"><path d="M24,9.179A.378.378,0,0,0,23.98,9.1a.4.4,0,0,0-.023-.069.359.359,0,0,0-.04-.061.377.377,0,0,0-.053-.062c-.006-.006-.009-.013-.016-.019L20,5.9V2.8a1.2,1.2,0,0,0-1.2-1.2H14.466L12.73.255a1.186,1.186,0,0,0-1.459,0L9.535,1.6H5.2A1.2,1.2,0,0,0,4,2.8V5.9L.154,8.887c-.007.006-.01.013-.016.019a.375.375,0,0,0-.053.062.357.357,0,0,0-.04.061A.4.4,0,0,0,.022,9.1a.379.379,0,0,0-.016.08c0,.008,0,.016,0,.024V22.8a1.187,1.187,0,0,0,.235.706s0,.008.006.011l.013.011A1.194,1.194,0,0,0,1.2,24H22.8a1.2,1.2,0,0,0,.949-.474s.008-.005.011-.009,0-.008.006-.011A1.187,1.187,0,0,0,24,22.8V9.2C24,9.195,24,9.188,24,9.179ZM11.76.887a.384.384,0,0,1,.477,0l.923.716H10.84ZM1.3,23.2l10.46-8.125a.384.384,0,0,1,.477,0L22.7,23.2Zm21.9-.624L12.73,14.448a1.187,1.187,0,0,0-1.459,0L.8,22.58V9.813L7.355,14.9a.4.4,0,1,0,.49-.632L1.186,9.1,4,6.912V10a.4.4,0,1,0,.8,0V2.8a.4.4,0,0,1,.4-.4H18.8a.4.4,0,0,1,.4.4V10a.4.4,0,1,0,.8,0V6.912L22.815,9.1l-6.671,5.18a.4.4,0,1,0,.49.632l6.567-5.1V22.58Z" transform="translate(-0.001 -0.004)"/><path d="M163.222,74.669V73.061a4.824,4.824,0,1,0-4.824,4.824.4.4,0,1,0,0-.8,4.02,4.02,0,1,1,4.02-4.02v1.608a.8.8,0,1,1-1.608,0V73.061a.4.4,0,1,0-.8,0,1.608,1.608,0,1,1-1.608-1.608.4.4,0,1,0,0-.8,2.412,2.412,0,1,0,1.625,4.189,1.6,1.6,0,0,0,3.2-.169Z" transform="translate(-146.398 -65.023)"/></g></g></g></svg>