<svg xmlns="http://www.w3.org/2000/svg" width="21" height="31.5" viewBox="0 0 21 31.5"><g transform="translate(-35.069)"><g transform="translate(35.069)"><path d="M45.569,0a10.509,10.509,0,0,0-10.5,10.495V21.006a10.5,10.5,0,0,0,21,0V10.495A10.51,10.51,0,0,0,45.569,0ZM54.9,21.006a9.333,9.333,0,0,1-18.667,0V10.495a9.333,9.333,0,0,1,18.667,0Z" transform="translate(-35.069)"/><path d="M101.954,23.379a.644.644,0,0,0-.644.644v5.83a.644.644,0,0,0,1.288,0v-5.83A.644.644,0,0,0,101.954,23.379Z" transform="translate(-91.454 -19.517)"/></g></g></svg>