<svg xmlns="http://www.w3.org/2000/svg" width="24" height="24" viewBox="0 0 24 24"><g transform="translate(0)"><path d="M25.815,17.63A2.815,2.815,0,1,0,23,14.815,2.818,2.818,0,0,0,25.815,17.63Zm0-4.826A2.011,2.011,0,1,1,23.8,14.815,2.013,2.013,0,0,1,25.815,12.8Z" transform="translate(-13.815 -7.208)"/><path d="M18.293,21.891l6.118-8.858A8.753,8.753,0,0,0,23.7,2.246a7.633,7.633,0,0,0-10.815,0,8.75,8.75,0,0,0-.719,10.775ZM13.45,2.811a6.838,6.838,0,0,1,9.687,0,7.908,7.908,0,0,1,.627,9.755l-5.471,7.921-5.48-7.933A7.905,7.905,0,0,1,13.45,2.811Z" transform="translate(-6.365 0)"/><path d="M16.847,43a.4.4,0,0,0-.094.8c4.206.5,6.447,1.839,6.447,2.617,0,1.091-4.261,2.614-11.2,2.614S.8,47.509.8,46.418C.8,45.64,3.04,44.3,7.247,43.8a.4.4,0,0,0-.094-.8C2.942,43.5,0,44.905,0,46.418c0,1.7,4.122,3.418,12,3.418s12-1.72,12-3.418C24,44.905,21.058,43.5,16.847,43Z" transform="translate(0 -25.836)"/></g></svg>